<?xml version="1.0" encoding="utf-8"?>
<!-- Generator: Adobe Illustrator 19.0.0, SVG Export Plug-In . SVG Version: 6.00 Build 0)  -->
<svg version="1.1" id="Capa_1" xmlns="http://www.w3.org/2000/svg" xmlns:xlink="http://www.w3.org/1999/xlink" x="0px" y="0px"
	 viewBox="-342 257.2 273.2 47.8" enable-background="new -342 257.2 273.2 47.8" xml:space="preserve">
<g id="XMLID_2_">
	<polygon id="XMLID_4_" fill="#4A679F" points="-102.1,297.6 -307.6,297.6 -333.5,264.6 -77.3,264.6 	"/>
	<g enable-background="new    ">
		<path fill="#E4E6F0" d="M-303.1,286.2c0,0.1-0.1,0.2-0.1,0.3c0,0.1,0,0.1-0.1,0.2c0,0.1,0,0.1-0.1,0.2s0,0.2-0.1,0.3l-0.1,0.1
			c-0.1,0-0.3,0.1-0.5,0.2c-0.3,0.1-0.6,0.1-1,0.1c-0.5,0-1-0.1-1.4-0.3c-0.4-0.2-0.7-0.4-0.9-0.7s-0.4-0.7-0.5-1.1
			c-0.1-0.4-0.2-0.8-0.2-1.3c0-0.5,0.1-1.2,0.2-1.9c0.2-0.7,0.4-1.3,0.8-2s0.8-1.1,1.3-1.5c0.5-0.4,1.2-0.6,2-0.6
			c0.4,0,0.8,0,1.1,0.1c0.3,0.1,0.6,0.2,0.8,0.3l0,0.1c0,0.1-0.1,0.2-0.1,0.2c0,0.1,0,0.1-0.1,0.2c0,0,0,0.1-0.1,0.2
			s-0.1,0.1-0.1,0.2l-0.2,0.1c-0.1-0.1-0.2-0.2-0.4-0.3c-0.2-0.1-0.5-0.2-0.9-0.2c-0.4,0-0.7,0.1-1,0.3c-0.3,0.2-0.6,0.4-0.8,0.7
			c-0.2,0.3-0.4,0.6-0.6,1c-0.2,0.4-0.3,0.7-0.4,1.1c-0.1,0.4-0.2,0.7-0.2,1.1c-0.1,0.4-0.1,0.7-0.1,0.9c0,0.3,0,0.6,0.1,0.9
			c0.1,0.3,0.2,0.6,0.4,0.8c0.1,0.2,0.2,0.3,0.4,0.4s0.3,0.2,0.4,0.2s0.3,0.1,0.4,0.1s0.3,0,0.4,0c0.5,0,0.8-0.1,1.1-0.2
			c0.3-0.1,0.5-0.3,0.6-0.4L-303.1,286.2z"/>
		<path fill="#E4E6F0" d="M-300.9,285.7c0,0.2-0.1,0.4-0.1,0.6c0,0.2-0.1,0.3-0.1,0.4c0,0.1,0,0.2-0.1,0.3c0,0.1,0,0.2-0.1,0.4
			l-0.1,0.1c-0.2,0-0.4,0-0.5,0c-0.1,0-0.3,0-0.5,0l-0.1-0.1c0,0,0-0.1,0.1-0.3c0-0.1,0.1-0.3,0.1-0.4c0-0.1,0.1-0.3,0.1-0.4
			c0-0.1,0.1-0.2,0.1-0.3l0.3-1.2l0.4-1.8c0.2-0.8,0.3-1.4,0.4-1.9c0.1-0.5,0.2-0.9,0.2-1.2c0.1-0.3,0.1-0.5,0.1-0.7
			c0-0.2,0.1-0.4,0.1-0.6l0.1-0.1c0.2,0,0.4,0,0.5-0.1s0.3,0,0.5-0.1l0.1,0.1c0,0.2-0.1,0.3-0.1,0.4c0,0.1-0.1,0.2-0.1,0.3
			c0,0.1-0.1,0.2-0.1,0.3c0,0.1-0.1,0.3-0.1,0.5c0.1-0.1,0.2-0.3,0.3-0.5c0.1-0.2,0.2-0.4,0.4-0.5c0.2-0.2,0.3-0.3,0.6-0.4
			c0.2-0.1,0.4-0.2,0.7-0.2c0.2,0,0.3,0,0.4,0.1s0.2,0.1,0.3,0.1v0.1c0,0.1,0,0.2-0.1,0.2s0,0.1-0.1,0.2c0,0.1,0,0.1-0.1,0.2
			s0,0.2-0.1,0.3l-0.1,0.1c-0.1,0-0.1-0.1-0.2-0.1c-0.1,0-0.2-0.1-0.4-0.1c-0.4,0-0.7,0.1-1,0.4c-0.3,0.2-0.5,0.6-0.7,1
			c-0.2,0.4-0.4,0.9-0.5,1.4c-0.1,0.6-0.3,1.2-0.4,1.8L-300.9,285.7z"/>
		<path fill="#E4E6F0" d="M-291.6,286.2c-0.1,0.2-0.1,0.4-0.1,0.5c0,0.1-0.1,0.3-0.1,0.5l-0.1,0.2c-0.4,0.2-0.7,0.2-1,0.3
			c-0.3,0-0.6,0.1-0.9,0.1c-1,0-1.8-0.3-2.4-0.9c-0.6-0.6-0.8-1.4-0.8-2.5c0-0.6,0.1-1.2,0.2-1.9c0.2-0.7,0.4-1.3,0.7-1.9
			c0.3-0.6,0.8-1.1,1.3-1.5c0.5-0.4,1.1-0.6,1.9-0.6c0.4,0,0.8,0.1,1.1,0.2c0.3,0.2,0.5,0.3,0.7,0.5c0.2,0.3,0.4,0.6,0.4,0.9
			c0.1,0.3,0.1,0.7,0.1,1c0,0.6-0.1,1.2-0.2,1.8l-0.1,0.1c0,0-0.1,0-0.3,0c-0.2,0-0.4,0-0.6,0c-0.3,0-0.5,0-0.8,0s-0.6,0-0.8,0
			c-0.3,0-0.5,0-0.7,0s-0.3,0-0.3,0c-0.2,0-0.4,0-0.7,0c-0.2,0-0.4,0-0.7,0c0,0.1-0.1,0.3-0.1,0.5c0,0.2-0.1,0.5-0.1,0.9
			c0,0.1,0,0.3,0,0.4c0,0.2,0,0.4,0.1,0.6c0.1,0.2,0.2,0.4,0.3,0.6s0.3,0.4,0.6,0.5c0.2,0.1,0.4,0.2,0.6,0.2c0.2,0,0.4,0.1,0.7,0.1
			c0.3,0,0.7,0,1-0.1s0.6-0.3,0.9-0.5L-291.6,286.2z M-291.8,282c0-0.1,0-0.3,0.1-0.5c0-0.2,0-0.4,0-0.6c0-0.6-0.1-1.1-0.4-1.4
			c-0.3-0.3-0.6-0.4-1-0.4c-0.2,0-0.5,0.1-0.7,0.2c-0.3,0.1-0.5,0.3-0.8,0.6c-0.3,0.3-0.5,0.6-0.7,1c-0.2,0.4-0.3,0.7-0.4,1.1
			H-291.8z"/>
		<path fill="#E4E6F0" d="M-283.3,282.1c-0.1,0.4-0.2,0.9-0.3,1.4c-0.1,0.5-0.2,0.9-0.3,1.4c-0.1,0.5-0.2,0.9-0.3,1.4
			c-0.1,0.4-0.1,0.8-0.2,1.2l-0.1,0.1c-0.2,0-0.3,0-0.4,0c-0.1,0-0.3,0-0.5,0l-0.1-0.1l0.2-0.8c-0.1,0.1-0.2,0.2-0.3,0.3
			s-0.3,0.2-0.5,0.4c-0.2,0.1-0.4,0.2-0.7,0.3c-0.2,0.1-0.5,0.1-0.8,0.1c-0.7,0-1.3-0.2-1.7-0.7c-0.4-0.5-0.7-1.2-0.7-2.1
			c0-0.3,0-0.6,0.1-1.1c0.1-0.4,0.2-0.8,0.3-1.3c0.2-0.5,0.4-0.9,0.6-1.4c0.3-0.5,0.6-0.9,1.1-1.3c0.3-0.3,0.6-0.5,0.9-0.7
			c0.3-0.2,0.6-0.3,0.8-0.4c0.3-0.1,0.5-0.1,0.8-0.2c0.3,0,0.5,0,0.7-0.1h2l0.1,0.1L-283.3,282.1z M-287.2,286.8
			c0.5,0,0.9-0.1,1.3-0.3c0.4-0.2,0.7-0.6,1-1.1c0-0.1,0-0.2,0.1-0.5c0.1-0.3,0.1-0.7,0.2-1.1c0.1-0.4,0.2-0.9,0.3-1.4
			c0.1-0.5,0.2-0.9,0.3-1.4c0.1-0.4,0.2-0.8,0.2-1.1c0.1-0.3,0.1-0.5,0.1-0.5c-0.2,0-0.3,0-0.4,0c-0.1,0-0.1,0-0.2,0
			c-0.7,0-1.2,0.1-1.6,0.3c-0.4,0.2-0.7,0.4-1,0.6c-0.4,0.3-0.7,0.7-0.9,1.2c-0.3,0.4-0.4,0.9-0.6,1.3c-0.1,0.4-0.2,0.8-0.3,1.2
			c-0.1,0.4-0.1,0.7-0.1,0.9c0,0.1,0,0.3,0,0.5s0.1,0.4,0.2,0.6c0.1,0.2,0.3,0.4,0.5,0.5C-287.9,286.7-287.6,286.8-287.2,286.8z"/>
		<path fill="#E4E6F0" d="M-280.4,286.1c-0.1,0.2-0.3,0.4-0.4,0.6c-0.1,0.2-0.3,0.5-0.4,0.7c-0.1,0.1-0.2,0.3-0.3,0.5
			c-0.1,0.2-0.3,0.5-0.4,0.7s-0.3,0.5-0.4,0.7c-0.1,0.2-0.2,0.4-0.3,0.5l-0.2,0.1c-0.1,0-0.2,0-0.3,0c-0.1,0-0.2,0-0.4,0l-0.1-0.1
			c0.1-0.2,0.2-0.5,0.4-0.8s0.3-0.7,0.5-1s0.3-0.7,0.5-1c0.1-0.3,0.3-0.7,0.4-0.9l0.2-0.1c0.3,0,0.5,0,0.6,0c0.2,0,0.4,0,0.7,0
			L-280.4,286.1z"/>
		<path fill="#E4E6F0" d="M-273.5,286.2c0,0.2-0.1,0.4-0.1,0.6c0,0.2-0.1,0.4-0.1,0.6l-0.1,0.1c-0.1,0-0.2,0-0.3,0
			c-0.1,0-0.2,0-0.2,0c-0.1,0-0.2,0-0.2,0c-0.1,0-0.2,0-0.3,0l-0.1-0.1c0-0.1,0.1-0.2,0.1-0.3c0-0.1,0.1-0.3,0.1-0.5
			c0-0.2,0.1-0.3,0.1-0.4c0-0.1,0.1-0.2,0.1-0.3c0-0.2,0.1-0.4,0.2-0.7c0.1-0.3,0.1-0.5,0.2-0.8c0.1-0.3,0.1-0.6,0.2-0.8
			c0.1-0.3,0.1-0.5,0.2-0.7l0.3-1.3c0.1-0.3,0.1-0.6,0.2-0.8s0.1-0.5,0.1-0.7c0-0.2,0.1-0.4,0.1-0.6c0-0.2,0.1-0.4,0.1-0.7l0.1-0.1
			c0.2,0,0.4,0,0.5-0.1c0.1,0,0.3,0,0.5-0.1l0.1,0.1c-0.1,0.3-0.2,0.6-0.2,0.8c-0.1,0.2-0.1,0.5-0.2,0.8c-0.1,0.3-0.1,0.6-0.2,1.1
			c-0.1,0.4-0.2,1-0.4,1.7l-0.4,2.2L-273.5,286.2z M-270.9,274.3c0,0.1-0.1,0.3-0.1,0.3c0,0.1-0.1,0.2-0.1,0.2c0,0.1,0,0.1-0.1,0.2
			s0,0.2-0.1,0.3l-0.1,0.1c-0.2,0-0.4,0-0.5,0s-0.3,0-0.6,0.1l-0.1-0.1c0-0.1,0.1-0.2,0.1-0.3s0-0.2,0.1-0.2c0-0.1,0-0.1,0.1-0.2
			c0-0.1,0-0.2,0.1-0.3l0.2-0.1c0.2,0,0.4,0,0.5-0.1s0.3,0,0.5-0.1L-270.9,274.3z"/>
		<path fill="#E4E6F0" d="M-265.3,285c-0.1,0.3-0.1,0.5-0.1,0.7s-0.1,0.4-0.1,0.5c0,0.2-0.1,0.3-0.1,0.5c0,0.2-0.1,0.4-0.1,0.6
			l-0.1,0.1c-0.3,0-0.5,0-0.6,0s-0.3,0-0.4,0l-0.1-0.1c0.1-0.5,0.2-0.8,0.3-1.1c0.1-0.3,0.1-0.5,0.2-0.8c0.1-0.2,0.1-0.4,0.1-0.6
			c0-0.2,0.1-0.4,0.2-0.8l0.5-2.1c0-0.1,0.1-0.2,0.1-0.4c0-0.2,0.1-0.3,0.1-0.5c0-0.2,0.1-0.3,0.1-0.5c0-0.2,0-0.3,0-0.4
			c0-0.2,0-0.4-0.1-0.6c-0.1-0.1-0.2-0.3-0.3-0.4c-0.1-0.1-0.3-0.1-0.4-0.2c-0.1,0-0.3,0-0.4,0c-0.4,0-0.8,0.1-1.2,0.3
			c-0.4,0.2-0.8,0.5-1.1,0.9c-0.1,0.3-0.1,0.5-0.1,0.7c0,0.2-0.1,0.4-0.1,0.6c0,0.2-0.1,0.5-0.2,0.8c-0.1,0.3-0.2,0.8-0.3,1.3
			c-0.1,0.4-0.1,0.7-0.2,0.9c-0.1,0.3-0.1,0.5-0.2,0.8c-0.1,0.3-0.1,0.5-0.2,0.8c-0.1,0.3-0.1,0.6-0.2,0.9l-0.1,0.1
			c-0.2,0-0.4,0-0.5,0c-0.1,0-0.3,0-0.5,0l-0.1-0.1l0.1-0.2c0-0.1,0.1-0.3,0.1-0.5c0.1-0.3,0.1-0.5,0.2-0.8c0.1-0.3,0.1-0.6,0.2-0.9
			c0.1-0.3,0.1-0.5,0.1-0.6l0.3-1.3c0.1-0.3,0.1-0.5,0.1-0.7c0-0.2,0.1-0.4,0.1-0.5c0-0.2,0.1-0.4,0.1-0.6c0-0.2,0.1-0.5,0.2-0.9
			c0-0.2,0.1-0.4,0.1-0.5s0.1-0.3,0.1-0.4c0-0.1,0-0.2,0.1-0.3s0-0.2,0.1-0.4l0.1-0.1c0.2,0,0.4,0,0.5-0.1s0.3-0.1,0.5-0.1l0.1,0.1
			l-0.3,0.9c0.3-0.2,0.5-0.4,0.8-0.6c0.3-0.1,0.5-0.3,0.7-0.3c0.2-0.1,0.4-0.1,0.6-0.1c0.2,0,0.3,0,0.4,0c0.2,0,0.4,0,0.7,0.1
			c0.2,0.1,0.4,0.2,0.6,0.3c0.2,0.1,0.3,0.3,0.5,0.6c0.1,0.2,0.2,0.5,0.2,0.9c0,0.2,0,0.4-0.1,0.6c0,0.2-0.1,0.4-0.1,0.6
			c0,0.2-0.1,0.3-0.1,0.5c0,0.2-0.1,0.4-0.1,0.6c0,0.2-0.1,0.4-0.1,0.6c0,0.2-0.1,0.4-0.1,0.5L-265.3,285z"/>
		<path fill="#E4E6F0" d="M-264,286.9c0.1-0.2,0.1-0.4,0.2-0.5c0-0.1,0.1-0.2,0.1-0.4l0.1,0c0.2,0.2,0.4,0.3,0.6,0.4
			c0.2,0.1,0.4,0.2,0.6,0.2s0.3,0.1,0.4,0.1c0.1,0,0.2,0,0.2,0c0.3,0,0.6,0,0.8-0.1c0.2-0.1,0.4-0.2,0.6-0.4
			c0.2-0.2,0.3-0.4,0.4-0.6c0.1-0.2,0.1-0.4,0.1-0.6s0-0.4-0.1-0.6c-0.1-0.2-0.2-0.3-0.3-0.4c-0.1-0.1-0.2-0.2-0.3-0.3
			c-0.1-0.1-0.2-0.2-0.4-0.3c-0.3-0.2-0.5-0.4-0.8-0.5c-0.2-0.2-0.4-0.4-0.6-0.6c-0.2-0.2-0.3-0.4-0.4-0.6c-0.1-0.2-0.1-0.5-0.1-0.8
			c0-0.3,0.1-0.6,0.2-0.9c0.1-0.3,0.3-0.6,0.5-0.8c0.2-0.3,0.5-0.5,0.9-0.6c0.4-0.2,0.8-0.2,1.3-0.2c0.3,0,0.7,0,1,0.1
			c0.3,0.1,0.6,0.2,0.9,0.4l0.1,0.1c-0.1,0.1-0.1,0.2-0.1,0.3c0,0.1-0.1,0.2-0.1,0.4l-0.1,0.1c-0.3-0.3-0.5-0.4-0.8-0.5
			c-0.3-0.1-0.5-0.1-0.7-0.1c-0.3,0-0.6,0-0.8,0.1c-0.2,0.1-0.4,0.2-0.6,0.4c-0.2,0.2-0.3,0.3-0.4,0.5c-0.1,0.2-0.1,0.4-0.1,0.6
			c0,0.2,0,0.4,0.1,0.5c0.1,0.1,0.2,0.3,0.3,0.4c0.1,0.1,0.3,0.3,0.4,0.4c0.2,0.1,0.4,0.3,0.6,0.4c0.2,0.2,0.4,0.3,0.6,0.5
			c0.2,0.1,0.4,0.3,0.5,0.5s0.3,0.4,0.3,0.6c0.1,0.2,0.1,0.5,0.1,0.8c0,0.4-0.1,0.8-0.2,1.1c-0.2,0.3-0.4,0.6-0.6,0.9
			c-0.3,0.2-0.6,0.4-0.9,0.6c-0.4,0.1-0.8,0.2-1.2,0.2c-0.2,0-0.4,0-0.5,0c-0.2,0-0.3-0.1-0.5-0.1c-0.3-0.1-0.6-0.2-0.7-0.3
			c-0.2-0.1-0.3-0.2-0.4-0.3L-264,286.9z"/>
		<path fill="#E4E6F0" d="M-254.9,279.2c0.3-0.3,0.6-0.5,1-0.6c0.3-0.2,0.7-0.2,1.1-0.2s0.8,0.1,1.1,0.3c0.3,0.2,0.6,0.4,0.8,0.6
			c0.1,0.2,0.2,0.4,0.4,0.7s0.2,0.8,0.2,1.3c0,0.3,0,0.6-0.1,1s-0.2,0.9-0.3,1.3c-0.1,0.5-0.3,0.9-0.6,1.4c-0.3,0.5-0.6,0.9-1,1.3
			c-0.4,0.4-0.9,0.7-1.5,0.9s-1.3,0.4-2,0.4c-0.2,0-0.3,0-0.5,0s-0.3,0-0.4,0c0,0.1-0.1,0.3-0.1,0.6c-0.1,0.3-0.1,0.6-0.2,1
			c0,0.1,0,0.2-0.1,0.4c0,0.2-0.1,0.4-0.1,0.6c0,0.2-0.1,0.4-0.1,0.6c0,0.2-0.1,0.3-0.1,0.4l-0.1,0.1c-0.1,0-0.2,0-0.3,0
			c-0.1,0-0.2,0-0.2,0c-0.1,0-0.1,0-0.2,0s-0.2,0-0.3,0l-0.1-0.1c0,0,0-0.1,0-0.1c0,0,0-0.1,0-0.1c0.1-0.3,0.1-0.6,0.2-0.8
			c0.1-0.3,0.1-0.6,0.2-0.8c0.1-0.2,0.1-0.5,0.2-0.7c0.1-0.2,0.1-0.5,0.2-0.7l0.4-1.4c0.3-1.5,0.6-2.9,0.9-4.1s0.5-2.4,0.7-3.5
			l0.1-0.1c0.1,0,0.2,0,0.3,0c0.1,0,0.2,0,0.2,0c0.1,0,0.1,0,0.2,0s0.2,0,0.3-0.1l0.1,0.1L-254.9,279.2z M-256.5,286.6
			c0.1,0,0.2,0,0.3,0.1c0.1,0,0.2,0,0.4,0c0.6,0,1.1-0.1,1.5-0.3c0.4-0.2,0.8-0.4,1.2-0.7s0.6-0.6,0.8-1c0.2-0.4,0.4-0.8,0.5-1.1
			c0.1-0.4,0.2-0.8,0.3-1.1c0.1-0.4,0.1-0.7,0.1-1s0-0.5-0.1-0.8c0-0.3-0.1-0.5-0.3-0.7c0,0-0.1-0.1-0.1-0.1
			c-0.1-0.1-0.1-0.1-0.2-0.2c-0.1-0.1-0.2-0.1-0.4-0.2c-0.1-0.1-0.3-0.1-0.5-0.1c-0.1,0-0.2,0-0.4,0s-0.4,0.1-0.6,0.2
			s-0.4,0.2-0.6,0.3c-0.2,0.2-0.4,0.3-0.5,0.6L-256.5,286.6z"/>
		<path fill="#E4E6F0" d="M-248.4,286.2c0,0.2-0.1,0.4-0.1,0.6c0,0.2-0.1,0.4-0.1,0.6l-0.1,0.1c-0.1,0-0.2,0-0.3,0
			c-0.1,0-0.2,0-0.2,0c-0.1,0-0.2,0-0.2,0c-0.1,0-0.2,0-0.3,0l-0.1-0.1c0-0.1,0.1-0.2,0.1-0.3c0-0.1,0.1-0.3,0.1-0.5
			c0-0.2,0.1-0.3,0.1-0.4c0-0.1,0.1-0.2,0.1-0.3c0-0.2,0.1-0.4,0.2-0.7c0.1-0.3,0.1-0.5,0.2-0.8c0.1-0.3,0.1-0.6,0.2-0.8
			c0.1-0.3,0.1-0.5,0.2-0.7l0.3-1.3c0.1-0.3,0.1-0.6,0.2-0.8s0.1-0.5,0.1-0.7c0-0.2,0.1-0.4,0.1-0.6c0-0.2,0.1-0.4,0.1-0.7l0.1-0.1
			c0.2,0,0.4,0,0.5-0.1c0.1,0,0.3,0,0.5-0.1l0.1,0.1c-0.1,0.3-0.2,0.6-0.2,0.8c-0.1,0.2-0.1,0.5-0.2,0.8c-0.1,0.3-0.1,0.6-0.2,1.1
			c-0.1,0.4-0.2,1-0.4,1.7l-0.4,2.2L-248.4,286.2z M-245.7,274.3c0,0.1-0.1,0.3-0.1,0.3c0,0.1-0.1,0.2-0.1,0.2c0,0.1,0,0.1-0.1,0.2
			s0,0.2-0.1,0.3l-0.1,0.1c-0.2,0-0.4,0-0.5,0s-0.3,0-0.6,0.1l-0.1-0.1c0-0.1,0.1-0.2,0.1-0.3s0-0.2,0.1-0.2c0-0.1,0-0.1,0.1-0.2
			c0-0.1,0-0.2,0.1-0.3l0.2-0.1c0.2,0,0.4,0,0.5-0.1s0.3,0,0.5-0.1L-245.7,274.3z"/>
		<path fill="#E4E6F0" d="M-245.1,285.7c0,0.2-0.1,0.4-0.1,0.6c0,0.2-0.1,0.3-0.1,0.4c0,0.1,0,0.2-0.1,0.3c0,0.1,0,0.2-0.1,0.4
			l-0.1,0.1c-0.2,0-0.4,0-0.5,0c-0.1,0-0.3,0-0.5,0l-0.1-0.1c0,0,0-0.1,0.1-0.3c0-0.1,0.1-0.3,0.1-0.4c0-0.1,0.1-0.3,0.1-0.4
			c0-0.1,0.1-0.2,0.1-0.3l0.3-1.2l0.4-1.8c0.2-0.8,0.3-1.4,0.4-1.9c0.1-0.5,0.2-0.9,0.2-1.2c0.1-0.3,0.1-0.5,0.1-0.7
			c0-0.2,0.1-0.4,0.1-0.6l0.1-0.1c0.2,0,0.4,0,0.5-0.1s0.3,0,0.5-0.1l0.1,0.1c0,0.2-0.1,0.3-0.1,0.4c0,0.1-0.1,0.2-0.1,0.3
			c0,0.1-0.1,0.2-0.1,0.3c0,0.1-0.1,0.3-0.1,0.5c0.1-0.1,0.2-0.3,0.3-0.5c0.1-0.2,0.2-0.4,0.4-0.5c0.2-0.2,0.3-0.3,0.6-0.4
			c0.2-0.1,0.4-0.2,0.7-0.2c0.2,0,0.3,0,0.4,0.1s0.2,0.1,0.3,0.1v0.1c0,0.1,0,0.2-0.1,0.2s0,0.1-0.1,0.2c0,0.1,0,0.1-0.1,0.2
			s0,0.2-0.1,0.3l-0.1,0.1c-0.1,0-0.1-0.1-0.2-0.1c-0.1,0-0.2-0.1-0.4-0.1c-0.4,0-0.7,0.1-1,0.4c-0.3,0.2-0.5,0.6-0.7,1
			c-0.2,0.4-0.4,0.9-0.5,1.4c-0.1,0.6-0.3,1.2-0.4,1.8L-245.1,285.7z"/>
		<path fill="#E4E6F0" d="M-234.9,282.1c-0.1,0.4-0.2,0.9-0.3,1.4c-0.1,0.5-0.2,0.9-0.3,1.4c-0.1,0.5-0.2,0.9-0.3,1.4
			c-0.1,0.4-0.1,0.8-0.2,1.2l-0.1,0.1c-0.2,0-0.3,0-0.4,0c-0.1,0-0.3,0-0.5,0l-0.1-0.1l0.2-0.8c-0.1,0.1-0.2,0.2-0.3,0.3
			s-0.3,0.2-0.5,0.4c-0.2,0.1-0.4,0.2-0.7,0.3c-0.2,0.1-0.5,0.1-0.8,0.1c-0.7,0-1.3-0.2-1.7-0.7c-0.4-0.5-0.7-1.2-0.7-2.1
			c0-0.3,0-0.6,0.1-1.1c0.1-0.4,0.2-0.8,0.3-1.3c0.2-0.5,0.4-0.9,0.6-1.4c0.3-0.5,0.6-0.9,1.1-1.3c0.3-0.3,0.6-0.5,0.9-0.7
			c0.3-0.2,0.6-0.3,0.8-0.4c0.3-0.1,0.5-0.1,0.8-0.2c0.3,0,0.5,0,0.7-0.1h2l0.1,0.1L-234.9,282.1z M-238.9,286.8
			c0.5,0,0.9-0.1,1.3-0.3c0.4-0.2,0.7-0.6,1-1.1c0-0.1,0-0.2,0.1-0.5c0.1-0.3,0.1-0.7,0.2-1.1c0.1-0.4,0.2-0.9,0.3-1.4
			c0.1-0.5,0.2-0.9,0.3-1.4c0.1-0.4,0.2-0.8,0.2-1.1c0.1-0.3,0.1-0.5,0.1-0.5c-0.2,0-0.3,0-0.4,0c-0.1,0-0.1,0-0.2,0
			c-0.7,0-1.2,0.1-1.6,0.3c-0.4,0.2-0.7,0.4-1,0.6c-0.4,0.3-0.7,0.7-0.9,1.2c-0.3,0.4-0.4,0.9-0.6,1.3c-0.1,0.4-0.2,0.8-0.3,1.2
			c-0.1,0.4-0.1,0.7-0.1,0.9c0,0.1,0,0.3,0,0.5s0.1,0.4,0.2,0.6c0.1,0.2,0.3,0.4,0.5,0.5C-239.6,286.7-239.3,286.8-238.9,286.8z"/>
		<path fill="#E4E6F0" d="M-232.1,286.1c-0.1,0.2-0.3,0.4-0.4,0.6c-0.1,0.2-0.3,0.5-0.4,0.7c-0.1,0.1-0.2,0.3-0.3,0.5
			c-0.1,0.2-0.3,0.5-0.4,0.7s-0.3,0.5-0.4,0.7c-0.1,0.2-0.2,0.4-0.3,0.5l-0.2,0.1c-0.1,0-0.2,0-0.3,0c-0.1,0-0.2,0-0.4,0l-0.1-0.1
			c0.1-0.2,0.2-0.5,0.4-0.8s0.3-0.7,0.5-1s0.3-0.7,0.5-1c0.1-0.3,0.3-0.7,0.4-0.9l0.2-0.1c0.3,0,0.5,0,0.6,0c0.2,0,0.4,0,0.7,0
			L-232.1,286.1z"/>
		<path fill="#E4E6F0" d="M-225.2,286.2c0,0.2-0.1,0.4-0.1,0.6c0,0.2-0.1,0.4-0.1,0.6l-0.1,0.1c-0.1,0-0.2,0-0.3,0
			c-0.1,0-0.2,0-0.2,0c-0.1,0-0.2,0-0.2,0c-0.1,0-0.2,0-0.3,0l-0.1-0.1c0-0.1,0.1-0.2,0.1-0.3c0-0.1,0.1-0.3,0.1-0.5
			c0-0.2,0.1-0.3,0.1-0.4c0-0.1,0.1-0.2,0.1-0.3c0-0.2,0.1-0.4,0.2-0.7c0.1-0.3,0.1-0.5,0.2-0.8c0.1-0.3,0.1-0.6,0.2-0.8
			c0.1-0.3,0.1-0.5,0.2-0.7l0.3-1.3c0.1-0.3,0.1-0.6,0.2-0.8s0.1-0.5,0.1-0.7c0-0.2,0.1-0.4,0.1-0.6c0-0.2,0.1-0.4,0.1-0.7l0.1-0.1
			c0.2,0,0.4,0,0.5-0.1c0.1,0,0.3,0,0.5-0.1l0.1,0.1c-0.1,0.3-0.2,0.6-0.2,0.8c-0.1,0.2-0.1,0.5-0.2,0.8c-0.1,0.3-0.1,0.6-0.2,1.1
			c-0.1,0.4-0.2,1-0.4,1.7l-0.4,2.2L-225.2,286.2z M-222.6,274.3c0,0.1-0.1,0.3-0.1,0.3c0,0.1-0.1,0.2-0.1,0.2c0,0.1,0,0.1-0.1,0.2
			s0,0.2-0.1,0.3l-0.1,0.1c-0.2,0-0.4,0-0.5,0s-0.3,0-0.6,0.1l-0.1-0.1c0-0.1,0.1-0.2,0.1-0.3s0-0.2,0.1-0.2c0-0.1,0-0.1,0.1-0.2
			c0-0.1,0-0.2,0.1-0.3l0.2-0.1c0.2,0,0.4,0,0.5-0.1s0.3,0,0.5-0.1L-222.6,274.3z"/>
		<path fill="#E4E6F0" d="M-216.9,285c-0.1,0.3-0.1,0.5-0.1,0.7s-0.1,0.4-0.1,0.5c0,0.2-0.1,0.3-0.1,0.5c0,0.2-0.1,0.4-0.1,0.6
			l-0.1,0.1c-0.3,0-0.5,0-0.6,0s-0.3,0-0.4,0l-0.1-0.1c0.1-0.5,0.2-0.8,0.3-1.1c0.1-0.3,0.1-0.5,0.2-0.8c0.1-0.2,0.1-0.4,0.1-0.6
			c0-0.2,0.1-0.4,0.2-0.8l0.5-2.1c0-0.1,0.1-0.2,0.1-0.4c0-0.2,0.1-0.3,0.1-0.5c0-0.2,0.1-0.3,0.1-0.5c0-0.2,0-0.3,0-0.4
			c0-0.2,0-0.4-0.1-0.6c-0.1-0.1-0.2-0.3-0.3-0.4c-0.1-0.1-0.3-0.1-0.4-0.2c-0.1,0-0.3,0-0.4,0c-0.4,0-0.8,0.1-1.2,0.3
			c-0.4,0.2-0.8,0.5-1.1,0.9c-0.1,0.3-0.1,0.5-0.1,0.7c0,0.2-0.1,0.4-0.1,0.6c0,0.2-0.1,0.5-0.2,0.8c-0.1,0.3-0.2,0.8-0.3,1.3
			c-0.1,0.4-0.1,0.7-0.2,0.9c-0.1,0.3-0.1,0.5-0.2,0.8c-0.1,0.3-0.1,0.5-0.2,0.8c-0.1,0.3-0.1,0.6-0.2,0.9l-0.1,0.1
			c-0.2,0-0.4,0-0.5,0c-0.1,0-0.3,0-0.5,0l-0.1-0.1l0.1-0.2c0-0.1,0.1-0.3,0.1-0.5c0.1-0.3,0.1-0.5,0.2-0.8c0.1-0.3,0.1-0.6,0.2-0.9
			c0.1-0.3,0.1-0.5,0.1-0.6l0.3-1.3c0.1-0.3,0.1-0.5,0.1-0.7c0-0.2,0.1-0.4,0.1-0.5c0-0.2,0.1-0.4,0.1-0.6c0-0.2,0.1-0.5,0.2-0.9
			c0-0.2,0.1-0.4,0.1-0.5s0.1-0.3,0.1-0.4c0-0.1,0-0.2,0.1-0.3s0-0.2,0.1-0.4l0.1-0.1c0.2,0,0.4,0,0.5-0.1s0.3-0.1,0.5-0.1l0.1,0.1
			l-0.3,0.9c0.3-0.2,0.5-0.4,0.8-0.6c0.3-0.1,0.5-0.3,0.7-0.3c0.2-0.1,0.4-0.1,0.6-0.1c0.2,0,0.3,0,0.4,0c0.2,0,0.4,0,0.7,0.1
			c0.2,0.1,0.4,0.2,0.6,0.3c0.2,0.1,0.3,0.3,0.5,0.6c0.1,0.2,0.2,0.5,0.2,0.9c0,0.2,0,0.4-0.1,0.6c0,0.2-0.1,0.4-0.1,0.6
			c0,0.2-0.1,0.3-0.1,0.5c0,0.2-0.1,0.4-0.1,0.6c0,0.2-0.1,0.4-0.1,0.6c0,0.2-0.1,0.4-0.1,0.5L-216.9,285z"/>
		<path fill="#E4E6F0" d="M-208.9,285c-0.1,0.3-0.1,0.5-0.1,0.7s-0.1,0.4-0.1,0.5c0,0.2-0.1,0.3-0.1,0.5c0,0.2-0.1,0.4-0.1,0.6
			l-0.1,0.1c-0.3,0-0.5,0-0.6,0s-0.3,0-0.4,0l-0.1-0.1c0.1-0.5,0.2-0.8,0.3-1.1c0.1-0.3,0.1-0.5,0.2-0.8c0.1-0.2,0.1-0.4,0.1-0.6
			c0-0.2,0.1-0.4,0.2-0.8l0.5-2.1c0-0.1,0.1-0.2,0.1-0.4c0-0.2,0.1-0.3,0.1-0.5c0-0.2,0.1-0.3,0.1-0.5c0-0.2,0-0.3,0-0.4
			c0-0.2,0-0.4-0.1-0.6c-0.1-0.1-0.2-0.3-0.3-0.4c-0.1-0.1-0.3-0.1-0.4-0.2c-0.1,0-0.3,0-0.4,0c-0.4,0-0.8,0.1-1.2,0.3
			c-0.4,0.2-0.8,0.5-1.1,0.9c-0.1,0.3-0.1,0.5-0.1,0.7c0,0.2-0.1,0.4-0.1,0.6c0,0.2-0.1,0.5-0.2,0.8c-0.1,0.3-0.2,0.8-0.3,1.3
			c-0.1,0.4-0.1,0.7-0.2,0.9c-0.1,0.3-0.1,0.5-0.2,0.8c-0.1,0.3-0.1,0.5-0.2,0.8c-0.1,0.3-0.1,0.6-0.2,0.9l-0.1,0.1
			c-0.2,0-0.4,0-0.5,0c-0.1,0-0.3,0-0.5,0l-0.1-0.1l0.1-0.2c0-0.1,0.1-0.3,0.1-0.5c0.1-0.3,0.1-0.5,0.2-0.8c0.1-0.3,0.1-0.6,0.2-0.9
			c0.1-0.3,0.1-0.5,0.1-0.6l0.3-1.3c0.1-0.3,0.1-0.5,0.1-0.7c0-0.2,0.1-0.4,0.1-0.5c0-0.2,0.1-0.4,0.1-0.6c0-0.2,0.1-0.5,0.2-0.9
			c0-0.2,0.1-0.4,0.1-0.5s0.1-0.3,0.1-0.4c0-0.1,0-0.2,0.1-0.3s0-0.2,0.1-0.4l0.1-0.1c0.2,0,0.4,0,0.5-0.1s0.3-0.1,0.5-0.1l0.1,0.1
			l-0.3,0.9c0.3-0.2,0.5-0.4,0.8-0.6c0.3-0.1,0.5-0.3,0.7-0.3c0.2-0.1,0.4-0.1,0.6-0.1c0.2,0,0.3,0,0.4,0c0.2,0,0.4,0,0.7,0.1
			c0.2,0.1,0.4,0.2,0.6,0.3c0.2,0.1,0.3,0.3,0.5,0.6c0.1,0.2,0.2,0.5,0.2,0.9c0,0.2,0,0.4-0.1,0.6c0,0.2-0.1,0.4-0.1,0.6
			c0,0.2-0.1,0.3-0.1,0.5c0,0.2-0.1,0.4-0.1,0.6c0,0.2-0.1,0.4-0.1,0.6c0,0.2-0.1,0.4-0.1,0.5L-208.9,285z"/>
		<path fill="#E4E6F0" d="M-199.9,281.5c0,0.2,0,0.6-0.1,1c0,0.4-0.1,0.8-0.2,1.3c-0.1,0.5-0.3,0.9-0.5,1.4
			c-0.2,0.5-0.5,0.9-0.8,1.3c-0.3,0.4-0.7,0.7-1.1,0.9c-0.4,0.2-1,0.4-1.6,0.4c-0.4,0-0.7-0.1-1.1-0.2c-0.3-0.1-0.6-0.3-0.9-0.6
			c-0.3-0.3-0.5-0.7-0.6-1.1c-0.1-0.4-0.1-0.8-0.1-1.3c0-0.3,0-0.7,0.1-1.2c0.1-0.4,0.2-0.9,0.3-1.3c0.1-0.5,0.3-0.9,0.5-1.3
			s0.5-0.8,0.8-1.2s0.7-0.6,1.1-0.8c0.4-0.2,0.9-0.3,1.5-0.3c0.4,0,0.7,0.1,1,0.2s0.6,0.3,0.9,0.6c0.3,0.3,0.5,0.7,0.6,1.1
			C-200,280.6-199.9,281-199.9,281.5z M-204,286.8c0.3,0,0.5,0,0.7-0.1c0.2-0.1,0.4-0.2,0.5-0.3c0.2-0.1,0.3-0.3,0.4-0.4
			c0.1-0.1,0.2-0.3,0.3-0.4c0.2-0.3,0.3-0.6,0.4-0.9c0.1-0.4,0.3-0.7,0.4-1.1c0.1-0.4,0.2-0.8,0.2-1.2c0.1-0.4,0.1-0.8,0.1-1.1
			c0-0.3,0-0.6-0.1-0.8c-0.1-0.3-0.2-0.5-0.4-0.7c-0.1-0.1-0.3-0.2-0.5-0.3c-0.2-0.1-0.4-0.2-0.8-0.2c-0.3,0-0.5,0.1-0.8,0.2
			c-0.3,0.1-0.5,0.3-0.7,0.5c-0.2,0.2-0.5,0.6-0.7,1c-0.2,0.4-0.4,0.8-0.5,1.3c-0.1,0.5-0.2,0.9-0.3,1.3c-0.1,0.4-0.1,0.8-0.1,1.2
			c0,0.3,0,0.5,0.1,0.7c0,0.1,0,0.2,0.1,0.4c0,0.2,0.1,0.3,0.2,0.5c0.1,0.2,0.3,0.3,0.5,0.4C-204.7,286.8-204.4,286.8-204,286.8z"/>
		<path fill="#E4E6F0" d="M-194.6,283.9c-0.2,0.3-0.3,0.6-0.5,0.9s-0.3,0.6-0.5,0.9c-0.2,0.3-0.3,0.6-0.4,0.8
			c-0.1,0.2-0.2,0.3-0.2,0.4c-0.1,0.1-0.1,0.2-0.1,0.3s-0.1,0.1-0.1,0.2l-0.1,0.1c-0.2,0-0.3,0-0.4,0c-0.1,0-0.2,0-0.3,0
			c-0.1,0-0.2,0-0.3,0s-0.2,0-0.4,0l-0.1-0.1l0-0.4c-0.1-1.1-0.1-2.1-0.2-3s-0.1-1.6-0.1-2.1c0-0.2,0-0.5,0-0.8c0-0.3,0-0.6-0.1-0.9
			s0-0.6-0.1-0.9s0-0.5-0.1-0.8l0.1-0.1c0.2,0,0.4,0,0.5,0c0.1,0,0.3,0,0.5-0.1l0.1,0.1v0.2c0,0.1,0,0.2,0,0.3c0,0.1,0,0.2,0,0.4
			s0,0.4,0,0.7c0,0.3,0,0.7,0,1.1l0.2,5.3l2.4-4.9c0.3-0.6,0.6-1.2,0.9-1.8c0.3-0.6,0.5-1,0.6-1.3l0.1-0.1c0.1,0,0.2,0,0.3,0
			c0.1,0,0.1,0,0.2,0c0.1,0,0.1,0,0.2,0c0.1,0,0.2,0,0.3,0l0.1,0.1c-0.1,0.2-0.2,0.4-0.3,0.6s-0.3,0.6-0.5,0.9
			c-0.1,0.2-0.2,0.4-0.4,0.7c-0.1,0.2-0.2,0.5-0.4,0.7L-194.6,283.9z"/>
		<path fill="#E4E6F0" d="M-185.7,282.1c-0.1,0.4-0.2,0.9-0.3,1.4c-0.1,0.5-0.2,0.9-0.3,1.4c-0.1,0.5-0.2,0.9-0.3,1.4
			c-0.1,0.4-0.1,0.8-0.2,1.2l-0.1,0.1c-0.2,0-0.3,0-0.4,0c-0.1,0-0.3,0-0.5,0l-0.1-0.1l0.2-0.8c-0.1,0.1-0.2,0.2-0.3,0.3
			s-0.3,0.2-0.5,0.4c-0.2,0.1-0.4,0.2-0.7,0.3c-0.2,0.1-0.5,0.1-0.8,0.1c-0.7,0-1.3-0.2-1.7-0.7c-0.4-0.5-0.7-1.2-0.7-2.1
			c0-0.3,0-0.6,0.1-1.1c0.1-0.4,0.2-0.8,0.3-1.3c0.2-0.5,0.4-0.9,0.6-1.4c0.3-0.5,0.6-0.9,1.1-1.3c0.3-0.3,0.6-0.5,0.9-0.7
			c0.3-0.2,0.6-0.3,0.8-0.4c0.3-0.1,0.5-0.1,0.8-0.2c0.3,0,0.5,0,0.7-0.1h2l0.1,0.1L-185.7,282.1z M-189.6,286.8
			c0.5,0,0.9-0.1,1.3-0.3c0.4-0.2,0.7-0.6,1-1.1c0-0.1,0-0.2,0.1-0.5c0.1-0.3,0.1-0.7,0.2-1.1c0.1-0.4,0.2-0.9,0.3-1.4
			c0.1-0.5,0.2-0.9,0.3-1.4c0.1-0.4,0.2-0.8,0.2-1.1c0.1-0.3,0.1-0.5,0.1-0.5c-0.2,0-0.3,0-0.4,0c-0.1,0-0.1,0-0.2,0
			c-0.7,0-1.2,0.1-1.6,0.3c-0.4,0.2-0.7,0.4-1,0.6c-0.4,0.3-0.7,0.7-0.9,1.2c-0.3,0.4-0.4,0.9-0.6,1.3c-0.1,0.4-0.2,0.8-0.3,1.2
			c-0.1,0.4-0.1,0.7-0.1,0.9c0,0.1,0,0.3,0,0.5s0.1,0.4,0.2,0.6c0.1,0.2,0.3,0.4,0.5,0.5C-190.3,286.7-190,286.8-189.6,286.8z"/>
		<path fill="#E4E6F0" d="M-174.7,286.2c-0.1,0.2-0.1,0.4-0.1,0.5c0,0.1-0.1,0.3-0.1,0.5l-0.1,0.2c-0.4,0.2-0.7,0.2-1,0.3
			c-0.3,0-0.6,0.1-0.9,0.1c-1,0-1.8-0.3-2.4-0.9c-0.6-0.6-0.8-1.4-0.8-2.5c0-0.6,0.1-1.2,0.2-1.9c0.2-0.7,0.4-1.3,0.7-1.9
			c0.3-0.6,0.8-1.1,1.3-1.5c0.5-0.4,1.1-0.6,1.9-0.6c0.4,0,0.8,0.1,1.1,0.2c0.3,0.2,0.5,0.3,0.7,0.5c0.2,0.3,0.4,0.6,0.4,0.9
			c0.1,0.3,0.1,0.7,0.1,1c0,0.6-0.1,1.2-0.2,1.8l-0.1,0.1c0,0-0.1,0-0.3,0c-0.2,0-0.4,0-0.6,0c-0.3,0-0.5,0-0.8,0s-0.6,0-0.8,0
			c-0.3,0-0.5,0-0.7,0s-0.3,0-0.3,0c-0.2,0-0.4,0-0.7,0c-0.2,0-0.4,0-0.7,0c0,0.1-0.1,0.3-0.1,0.5c0,0.2-0.1,0.5-0.1,0.9
			c0,0.1,0,0.3,0,0.4c0,0.2,0,0.4,0.1,0.6c0.1,0.2,0.2,0.4,0.3,0.6s0.3,0.4,0.6,0.5c0.2,0.1,0.4,0.2,0.6,0.2c0.2,0,0.4,0.1,0.7,0.1
			c0.3,0,0.7,0,1-0.1s0.6-0.3,0.9-0.5L-174.7,286.2z M-174.8,282c0-0.1,0-0.3,0.1-0.5c0-0.2,0-0.4,0-0.6c0-0.6-0.1-1.1-0.4-1.4
			c-0.3-0.3-0.6-0.4-1-0.4c-0.2,0-0.5,0.1-0.7,0.2c-0.3,0.1-0.5,0.3-0.8,0.6c-0.3,0.3-0.5,0.6-0.7,1c-0.2,0.4-0.3,0.7-0.4,1.1
			H-174.8z"/>
		<path fill="#E4E6F0" d="M-171.9,285.7c0,0.2-0.1,0.4-0.1,0.6c0,0.2-0.1,0.3-0.1,0.4c0,0.1,0,0.2-0.1,0.3c0,0.1,0,0.2-0.1,0.4
			l-0.1,0.1c-0.2,0-0.4,0-0.5,0c-0.1,0-0.3,0-0.5,0l-0.1-0.1c0,0,0-0.1,0.1-0.3c0-0.1,0.1-0.3,0.1-0.4c0-0.1,0.1-0.3,0.1-0.4
			c0-0.1,0.1-0.2,0.1-0.3l0.3-1.2l0.4-1.8c0.2-0.8,0.3-1.4,0.4-1.9c0.1-0.5,0.2-0.9,0.2-1.2c0.1-0.3,0.1-0.5,0.1-0.7
			c0-0.2,0.1-0.4,0.1-0.6l0.1-0.1c0.2,0,0.4,0,0.5-0.1s0.3,0,0.5-0.1l0.1,0.1c0,0.2-0.1,0.3-0.1,0.4c0,0.1-0.1,0.2-0.1,0.3
			c0,0.1-0.1,0.2-0.1,0.3c0,0.1-0.1,0.3-0.1,0.5c0.1-0.1,0.2-0.3,0.3-0.5c0.1-0.2,0.2-0.4,0.4-0.5c0.2-0.2,0.3-0.3,0.6-0.4
			c0.2-0.1,0.4-0.2,0.7-0.2c0.2,0,0.3,0,0.4,0.1s0.2,0.1,0.3,0.1v0.1c0,0.1,0,0.2-0.1,0.2s0,0.1-0.1,0.2c0,0.1,0,0.1-0.1,0.2
			s0,0.2-0.1,0.3l-0.1,0.1c-0.1,0-0.1-0.1-0.2-0.1c-0.1,0-0.2-0.1-0.4-0.1c-0.4,0-0.7,0.1-1,0.4c-0.3,0.2-0.5,0.6-0.7,1
			c-0.2,0.4-0.4,0.9-0.5,1.4c-0.1,0.6-0.3,1.2-0.4,1.8L-171.9,285.7z"/>
		<path fill="#E4E6F0" d="M-162.7,286.2c-0.1,0.2-0.1,0.4-0.1,0.5c0,0.1-0.1,0.3-0.1,0.5l-0.1,0.2c-0.4,0.2-0.7,0.2-1,0.3
			c-0.3,0-0.6,0.1-0.9,0.1c-1,0-1.8-0.3-2.4-0.9c-0.6-0.6-0.8-1.4-0.8-2.5c0-0.6,0.1-1.2,0.2-1.9c0.2-0.7,0.4-1.3,0.7-1.9
			c0.3-0.6,0.8-1.1,1.3-1.5c0.5-0.4,1.1-0.6,1.9-0.6c0.4,0,0.8,0.1,1.1,0.2c0.3,0.2,0.5,0.3,0.7,0.5c0.2,0.3,0.4,0.6,0.4,0.9
			c0.1,0.3,0.1,0.7,0.1,1c0,0.6-0.1,1.2-0.2,1.8l-0.1,0.1c0,0-0.1,0-0.3,0c-0.2,0-0.4,0-0.6,0c-0.3,0-0.5,0-0.8,0s-0.6,0-0.8,0
			c-0.3,0-0.5,0-0.7,0s-0.3,0-0.3,0c-0.2,0-0.4,0-0.7,0c-0.2,0-0.4,0-0.7,0c0,0.1-0.1,0.3-0.1,0.5c0,0.2-0.1,0.5-0.1,0.9
			c0,0.1,0,0.3,0,0.4c0,0.2,0,0.4,0.1,0.6c0.1,0.2,0.2,0.4,0.3,0.6s0.3,0.4,0.6,0.5c0.2,0.1,0.4,0.2,0.6,0.2c0.2,0,0.4,0.1,0.7,0.1
			c0.3,0,0.7,0,1-0.1s0.6-0.3,0.9-0.5L-162.7,286.2z M-162.8,282c0-0.1,0-0.3,0.1-0.5c0-0.2,0-0.4,0-0.6c0-0.6-0.1-1.1-0.4-1.4
			c-0.3-0.3-0.6-0.4-1-0.4c-0.2,0-0.5,0.1-0.7,0.2c-0.3,0.1-0.5,0.3-0.8,0.6c-0.3,0.3-0.5,0.6-0.7,1c-0.2,0.4-0.3,0.7-0.4,1.1
			H-162.8z"/>
		<path fill="#E4E6F0" d="M-161.6,286.9c0.1-0.2,0.1-0.4,0.2-0.5c0-0.1,0.1-0.2,0.1-0.4l0.1,0c0.2,0.2,0.4,0.3,0.6,0.4
			c0.2,0.1,0.4,0.2,0.6,0.2s0.3,0.1,0.4,0.1c0.1,0,0.2,0,0.2,0c0.3,0,0.6,0,0.8-0.1c0.2-0.1,0.4-0.2,0.6-0.4
			c0.2-0.2,0.3-0.4,0.4-0.6c0.1-0.2,0.1-0.4,0.1-0.6s0-0.4-0.1-0.6c-0.1-0.2-0.2-0.3-0.3-0.4c-0.1-0.1-0.2-0.2-0.3-0.3
			c-0.1-0.1-0.2-0.2-0.4-0.3c-0.3-0.2-0.5-0.4-0.8-0.5c-0.2-0.2-0.4-0.4-0.6-0.6c-0.2-0.2-0.3-0.4-0.4-0.6c-0.1-0.2-0.1-0.5-0.1-0.8
			c0-0.3,0.1-0.6,0.2-0.9c0.1-0.3,0.3-0.6,0.5-0.8c0.2-0.3,0.5-0.5,0.9-0.6c0.4-0.2,0.8-0.2,1.3-0.2c0.3,0,0.7,0,1,0.1
			c0.3,0.1,0.6,0.2,0.9,0.4l0.1,0.1c-0.1,0.1-0.1,0.2-0.1,0.3c0,0.1-0.1,0.2-0.1,0.4l-0.1,0.1c-0.3-0.3-0.5-0.4-0.8-0.5
			c-0.3-0.1-0.5-0.1-0.7-0.1c-0.3,0-0.6,0-0.8,0.1c-0.2,0.1-0.4,0.2-0.6,0.4c-0.2,0.2-0.3,0.3-0.4,0.5c-0.1,0.2-0.1,0.4-0.1,0.6
			c0,0.2,0,0.4,0.1,0.5c0.1,0.1,0.2,0.3,0.3,0.4c0.1,0.1,0.3,0.3,0.4,0.4c0.2,0.1,0.4,0.3,0.6,0.4c0.2,0.2,0.4,0.3,0.6,0.5
			c0.2,0.1,0.4,0.3,0.5,0.5s0.3,0.4,0.3,0.6c0.1,0.2,0.1,0.5,0.1,0.8c0,0.4-0.1,0.8-0.2,1.1c-0.2,0.3-0.4,0.6-0.6,0.9
			c-0.3,0.2-0.6,0.4-0.9,0.6c-0.4,0.1-0.8,0.2-1.2,0.2c-0.2,0-0.4,0-0.5,0c-0.2,0-0.3-0.1-0.5-0.1c-0.3-0.1-0.6-0.2-0.7-0.3
			c-0.2-0.1-0.3-0.2-0.4-0.3L-161.6,286.9z"/>
		<path fill="#E4E6F0" d="M-145.5,286.2c-0.1,0.2-0.1,0.4-0.1,0.5c0,0.1-0.1,0.3-0.1,0.5l-0.1,0.2c-0.4,0.2-0.7,0.2-1,0.3
			c-0.3,0-0.6,0.1-0.9,0.1c-1,0-1.8-0.3-2.4-0.9c-0.6-0.6-0.8-1.4-0.8-2.5c0-0.6,0.1-1.2,0.2-1.9c0.2-0.7,0.4-1.3,0.7-1.9
			c0.3-0.6,0.8-1.1,1.3-1.5c0.5-0.4,1.1-0.6,1.9-0.6c0.4,0,0.8,0.1,1.1,0.2c0.3,0.2,0.5,0.3,0.7,0.5c0.2,0.3,0.4,0.6,0.4,0.9
			c0.1,0.3,0.1,0.7,0.1,1c0,0.6-0.1,1.2-0.2,1.8l-0.1,0.1c0,0-0.1,0-0.3,0c-0.2,0-0.4,0-0.6,0c-0.3,0-0.5,0-0.8,0s-0.6,0-0.8,0
			c-0.3,0-0.5,0-0.7,0s-0.3,0-0.3,0c-0.2,0-0.4,0-0.7,0c-0.2,0-0.4,0-0.7,0c0,0.1-0.1,0.3-0.1,0.5c0,0.2-0.1,0.5-0.1,0.9
			c0,0.1,0,0.3,0,0.4c0,0.2,0,0.4,0.1,0.6c0.1,0.2,0.2,0.4,0.3,0.6s0.3,0.4,0.6,0.5c0.2,0.1,0.4,0.2,0.6,0.2c0.2,0,0.4,0.1,0.7,0.1
			c0.3,0,0.7,0,1-0.1s0.6-0.3,0.9-0.5L-145.5,286.2z M-145.6,282c0-0.1,0-0.3,0.1-0.5c0-0.2,0-0.4,0-0.6c0-0.6-0.1-1.1-0.4-1.4
			c-0.3-0.3-0.6-0.4-1-0.4c-0.2,0-0.5,0.1-0.7,0.2c-0.3,0.1-0.5,0.3-0.8,0.6c-0.3,0.3-0.5,0.6-0.7,1c-0.2,0.4-0.3,0.7-0.4,1.1
			H-145.6z"/>
		<path fill="#E4E6F0" d="M-133.4,282.8c-0.1,0.4-0.2,0.8-0.2,1.3c-0.1,0.4-0.2,0.8-0.2,1.3c-0.1,0.3-0.1,0.5-0.1,0.7
			c0,0.2-0.1,0.4-0.1,0.5c0,0.1-0.1,0.3-0.1,0.4c0,0.1,0,0.2,0,0.4l-0.1,0.1c-0.2,0-0.4,0-0.5,0c-0.1,0-0.3,0-0.5,0l-0.1-0.1
			c0.1-0.5,0.3-1.1,0.4-1.6c0.1-0.5,0.2-1.1,0.4-1.6l1.8-8.5l-4,8c-0.1,0.2-0.3,0.5-0.4,0.8s-0.3,0.6-0.5,1s-0.3,0.7-0.5,1
			c-0.2,0.3-0.3,0.7-0.5,0.9l-0.1,0.1h-1l-0.1-0.1c0-0.4,0-0.9,0-1.3c0-0.4,0-0.9,0-1.3l-0.2-9l-2.1,7.8c-0.2,0.5-0.3,1-0.4,1.4
			c-0.1,0.4-0.2,0.8-0.3,1.1c-0.1,0.3-0.1,0.6-0.2,0.8c-0.1,0.2-0.1,0.4-0.1,0.6l-0.1,0.1h-1l-0.1-0.1c0.2-0.6,0.3-1.1,0.5-1.7
			s0.3-1.1,0.5-1.7l1.3-4.4c0.2-0.7,0.4-1.3,0.6-2.1s0.4-1.5,0.6-2.4l0.1-0.1c0.2,0,0.4,0,0.5,0s0.3,0,0.4,0s0.2,0,0.3,0
			s0.3,0,0.4,0l0.1,0.1c0,0.2,0,0.5,0,0.8s0,0.6,0,0.9s0,0.6,0,0.9c0,0.3,0,0.5,0,0.8l0,7.4l3.5-7.1c0.3-0.6,0.6-1.2,0.9-1.8
			s0.6-1.2,0.8-1.8l0.1-0.1c0.1,0,0.2,0,0.2,0c0.1,0,0.2,0,0.3,0c0.2,0,0.4,0,0.5,0c0.2,0,0.4,0,0.7,0l0.1,0.1
			c-0.2,0.8-0.3,1.5-0.5,2.3c-0.1,0.7-0.3,1.5-0.4,2.3L-133.4,282.8z"/>
		<path fill="#E4E6F0" d="M-124.7,281.5c0,0.2,0,0.6-0.1,1c0,0.4-0.1,0.8-0.2,1.3c-0.1,0.5-0.3,0.9-0.5,1.4
			c-0.2,0.5-0.5,0.9-0.8,1.3c-0.3,0.4-0.7,0.7-1.1,0.9c-0.4,0.2-1,0.4-1.6,0.4c-0.4,0-0.7-0.1-1.1-0.2c-0.3-0.1-0.6-0.3-0.9-0.6
			c-0.3-0.3-0.5-0.7-0.6-1.1c-0.1-0.4-0.1-0.8-0.1-1.3c0-0.3,0-0.7,0.1-1.2c0.1-0.4,0.2-0.9,0.3-1.3c0.1-0.5,0.3-0.9,0.5-1.3
			s0.5-0.8,0.8-1.2s0.7-0.6,1.1-0.8c0.4-0.2,0.9-0.3,1.5-0.3c0.4,0,0.7,0.1,1,0.2s0.6,0.3,0.9,0.6c0.3,0.3,0.5,0.7,0.6,1.1
			C-124.8,280.6-124.7,281-124.7,281.5z M-128.8,286.8c0.3,0,0.5,0,0.7-0.1c0.2-0.1,0.4-0.2,0.5-0.3c0.2-0.1,0.3-0.3,0.4-0.4
			c0.1-0.1,0.2-0.3,0.3-0.4c0.2-0.3,0.3-0.6,0.4-0.9c0.1-0.4,0.3-0.7,0.4-1.1c0.1-0.4,0.2-0.8,0.2-1.2c0.1-0.4,0.1-0.8,0.1-1.1
			c0-0.3,0-0.6-0.1-0.8c-0.1-0.3-0.2-0.5-0.4-0.7c-0.1-0.1-0.3-0.2-0.5-0.3c-0.2-0.1-0.4-0.2-0.8-0.2c-0.3,0-0.5,0.1-0.8,0.2
			c-0.3,0.1-0.5,0.3-0.7,0.5c-0.2,0.2-0.5,0.6-0.7,1c-0.2,0.4-0.4,0.8-0.5,1.3c-0.1,0.5-0.2,0.9-0.3,1.3c-0.1,0.4-0.1,0.8-0.1,1.2
			c0,0.3,0,0.5,0.1,0.7c0,0.1,0,0.2,0.1,0.4c0,0.2,0.1,0.3,0.2,0.5c0.1,0.2,0.3,0.3,0.5,0.4C-129.5,286.8-129.2,286.8-128.8,286.8z"
			/>
		<path fill="#E4E6F0" d="M-120.9,286.5c0,0.1-0.1,0.2-0.1,0.3s-0.1,0.2-0.1,0.5l-0.1,0.1c-0.1,0-0.2,0.1-0.4,0.1s-0.3,0.1-0.5,0.1
			c-0.2,0-0.3,0-0.5-0.1c-0.2,0-0.3-0.1-0.5-0.2c-0.1-0.1-0.3-0.2-0.4-0.4c-0.1-0.2-0.2-0.4-0.2-0.7c0-0.3,0-0.6,0.1-0.9
			c0.1-0.3,0.2-0.7,0.3-1.1c0.1-0.4,0.2-0.8,0.3-1.2c0.1-0.4,0.2-0.8,0.3-1.2l0.6-2.4c-0.1,0-0.2,0-0.3,0c-0.1,0-0.2,0-0.2,0
			c-0.1,0-0.1,0-0.2,0c-0.1,0-0.2,0-0.3,0l0-0.1c0.1-0.2,0.1-0.3,0.1-0.4s0-0.2,0.1-0.3l0.1-0.1c0.1,0,0.2,0,0.3,0
			c0.1,0,0.2,0,0.2,0s0.1,0,0.2,0c0.1,0,0.2,0,0.3,0c0.1-0.3,0.1-0.5,0.1-0.7c0-0.2,0.1-0.3,0.1-0.5c0-0.1,0-0.3,0.1-0.4
			c0-0.2,0.1-0.4,0.1-0.6l0.1-0.1c0.3-0.1,0.5-0.1,0.6-0.1s0.3-0.1,0.5-0.1l0.1,0.1c0,0.2-0.1,0.3-0.1,0.4c0,0.1-0.1,0.2-0.1,0.3
			c0,0.1,0,0.2-0.1,0.2s0,0.2-0.1,0.3l-0.3,1.2c0.2,0,0.3,0,0.4,0s0.2,0,0.3,0c0.1,0,0.2,0,0.3,0s0.3,0,0.5,0l0,0.1
			c-0.1,0.1-0.1,0.3-0.1,0.4c0,0.1-0.1,0.2-0.1,0.3l-0.1,0.1c-0.2,0-0.4,0-0.5,0c-0.1,0-0.2,0-0.3,0c-0.1,0-0.2,0-0.3,0
			c-0.1,0-0.2,0-0.3,0l-1.1,4.6c0,0.1-0.1,0.3-0.1,0.4c0,0.1-0.1,0.3-0.1,0.4c0,0.2-0.1,0.4-0.1,0.6c0,0.2-0.1,0.4-0.1,0.6
			c0,0,0,0.1,0,0.2c0,0.1,0,0.2,0.1,0.2c0,0.1,0.1,0.2,0.2,0.2s0.3,0.1,0.4,0.1c0.2,0,0.4,0,0.5-0.1S-121.1,286.5-120.9,286.5
			L-120.9,286.5z"/>
		<path fill="#E4E6F0" d="M-118.6,286.2c0,0.2-0.1,0.4-0.1,0.6c0,0.2-0.1,0.4-0.1,0.6l-0.1,0.1c-0.1,0-0.2,0-0.3,0
			c-0.1,0-0.2,0-0.2,0c-0.1,0-0.2,0-0.2,0c-0.1,0-0.2,0-0.3,0l-0.1-0.1c0-0.1,0.1-0.2,0.1-0.3c0-0.1,0.1-0.3,0.1-0.5
			c0-0.2,0.1-0.3,0.1-0.4c0-0.1,0.1-0.2,0.1-0.3c0-0.2,0.1-0.4,0.2-0.7c0.1-0.3,0.1-0.5,0.2-0.8c0.1-0.3,0.1-0.6,0.2-0.8
			c0.1-0.3,0.1-0.5,0.2-0.7l0.3-1.3c0.1-0.3,0.1-0.6,0.2-0.8s0.1-0.5,0.1-0.7c0-0.2,0.1-0.4,0.1-0.6c0-0.2,0.1-0.4,0.1-0.7l0.1-0.1
			c0.2,0,0.4,0,0.5-0.1c0.1,0,0.3,0,0.5-0.1l0.1,0.1c-0.1,0.3-0.2,0.6-0.2,0.8c-0.1,0.2-0.1,0.5-0.2,0.8c-0.1,0.3-0.1,0.6-0.2,1.1
			c-0.1,0.4-0.2,1-0.4,1.7l-0.4,2.2L-118.6,286.2z M-116,274.3c0,0.1-0.1,0.3-0.1,0.3c0,0.1-0.1,0.2-0.1,0.2c0,0.1,0,0.1-0.1,0.2
			s0,0.2-0.1,0.3l-0.1,0.1c-0.2,0-0.4,0-0.5,0s-0.3,0-0.6,0.1l-0.1-0.1c0-0.1,0.1-0.2,0.1-0.3s0-0.2,0.1-0.2c0-0.1,0-0.1,0.1-0.2
			c0-0.1,0-0.2,0.1-0.3l0.2-0.1c0.2,0,0.4,0,0.5-0.1s0.3,0,0.5-0.1L-116,274.3z"/>
		<path fill="#E4E6F0" d="M-112.1,283.9c-0.2,0.3-0.3,0.6-0.5,0.9s-0.3,0.6-0.5,0.9c-0.2,0.3-0.3,0.6-0.4,0.8
			c-0.1,0.2-0.2,0.3-0.2,0.4c-0.1,0.1-0.1,0.2-0.1,0.3s-0.1,0.1-0.1,0.2l-0.1,0.1c-0.2,0-0.3,0-0.4,0c-0.1,0-0.2,0-0.3,0
			c-0.1,0-0.2,0-0.3,0s-0.2,0-0.4,0l-0.1-0.1l0-0.4c-0.1-1.1-0.1-2.1-0.2-3s-0.1-1.6-0.1-2.1c0-0.2,0-0.5,0-0.8c0-0.3,0-0.6-0.1-0.9
			s0-0.6-0.1-0.9s0-0.5-0.1-0.8l0.1-0.1c0.2,0,0.4,0,0.5,0c0.1,0,0.3,0,0.5-0.1l0.1,0.1v0.2c0,0.1,0,0.2,0,0.3c0,0.1,0,0.2,0,0.4
			s0,0.4,0,0.7c0,0.3,0,0.7,0,1.1l0.2,5.3l2.4-4.9c0.3-0.6,0.6-1.2,0.9-1.8c0.3-0.6,0.5-1,0.6-1.3l0.1-0.1c0.1,0,0.2,0,0.3,0
			c0.1,0,0.1,0,0.2,0c0.1,0,0.1,0,0.2,0c0.1,0,0.2,0,0.3,0l0.1,0.1c-0.1,0.2-0.2,0.4-0.3,0.6s-0.3,0.6-0.5,0.9
			c-0.1,0.2-0.2,0.4-0.4,0.7c-0.1,0.2-0.2,0.5-0.4,0.7L-112.1,283.9z"/>
		<path fill="#E4E6F0" d="M-102.8,281.5c0,0.2,0,0.6-0.1,1c0,0.4-0.1,0.8-0.2,1.3c-0.1,0.5-0.3,0.9-0.5,1.4
			c-0.2,0.5-0.5,0.9-0.8,1.3c-0.3,0.4-0.7,0.7-1.1,0.9c-0.4,0.2-1,0.4-1.6,0.4c-0.4,0-0.7-0.1-1.1-0.2c-0.3-0.1-0.6-0.3-0.9-0.6
			c-0.3-0.3-0.5-0.7-0.6-1.1c-0.1-0.4-0.1-0.8-0.1-1.3c0-0.3,0-0.7,0.1-1.2c0.1-0.4,0.2-0.9,0.3-1.3c0.1-0.5,0.3-0.9,0.5-1.3
			s0.5-0.8,0.8-1.2s0.7-0.6,1.1-0.8c0.4-0.2,0.9-0.3,1.5-0.3c0.4,0,0.7,0.1,1,0.2s0.6,0.3,0.9,0.6c0.3,0.3,0.5,0.7,0.6,1.1
			C-102.9,280.6-102.8,281-102.8,281.5z M-106.9,286.8c0.3,0,0.5,0,0.7-0.1c0.2-0.1,0.4-0.2,0.5-0.3c0.2-0.1,0.3-0.3,0.4-0.4
			c0.1-0.1,0.2-0.3,0.3-0.4c0.2-0.3,0.3-0.6,0.4-0.9c0.1-0.4,0.3-0.7,0.4-1.1c0.1-0.4,0.2-0.8,0.2-1.2c0.1-0.4,0.1-0.8,0.1-1.1
			c0-0.3,0-0.6-0.1-0.8c-0.1-0.3-0.2-0.5-0.4-0.7c-0.1-0.1-0.3-0.2-0.5-0.3c-0.2-0.1-0.4-0.2-0.8-0.2c-0.3,0-0.5,0.1-0.8,0.2
			c-0.3,0.1-0.5,0.3-0.7,0.5c-0.2,0.2-0.5,0.6-0.7,1c-0.2,0.4-0.4,0.8-0.5,1.3c-0.1,0.5-0.2,0.9-0.3,1.3c-0.1,0.4-0.1,0.8-0.1,1.2
			c0,0.3,0,0.5,0.1,0.7c0,0.1,0,0.2,0.1,0.4c0,0.2,0.1,0.3,0.2,0.5c0.1,0.2,0.3,0.3,0.5,0.4C-107.6,286.8-107.3,286.8-106.9,286.8z"
			/>
	</g>
</g>
</svg>
