<?xml version="1.0" encoding="utf-8"?>
<!-- Generator: Adobe Illustrator 19.0.0, SVG Export Plug-In . SVG Version: 6.00 Build 0)  -->
<svg version="1.1" id="Capa_1" xmlns="http://www.w3.org/2000/svg" xmlns:xlink="http://www.w3.org/1999/xlink" x="0px" y="0px"
	 viewBox="-410 256 137.5 49" enable-background="new -410 256 137.5 49" xml:space="preserve">
<g id="XMLID_205_">
	<g id="XMLID_376_">
		<path id="XMLID_406_" fill="#2F457E" d="M-337.9,289.6c-0.5-0.8-1.3-0.9-2.1-0.9c-0.8,0-2.1,0.3-2.1,1.4c0,0.9,0.9,1.1,2.1,1.3
			c1.3,0.3,2.7,0.5,2.7,2c0,1.5-1.6,1.9-2.7,1.9c-1.1,0-2.3-0.4-2.8-1.5l0.5-0.2c0.4,0.8,1.5,1.2,2.3,1.2c0.8,0,2.2-0.2,2.2-1.5
			c0-1-1.1-1.3-2.3-1.5c-1.3-0.2-2.5-0.5-2.5-1.8c0-1.5,1.5-1.9,2.6-1.9c1,0,1.8,0.2,2.5,1.2L-337.9,289.6z"/>
		<path id="XMLID_404_" fill="#2F457E" d="M-334.7,288.8v1.5h1.6v0.4h-1.6v3c0,0.7,0.1,1.1,0.9,1.1c0.2,0,0.5-0.1,0.7-0.2l0.2,0.4
			c-0.3,0.1-0.6,0.2-0.9,0.2c-1,0-1.4-0.6-1.4-1.6v-3h-1v-0.4h1v-1.4L-334.7,288.8z"/>
		<path id="XMLID_402_" fill="#2F457E" d="M-327.8,295.1v-0.9c-0.4,0.7-1,0.9-1.7,1c-1.3,0-2.2-0.8-2.2-2.1v-2.8h0.5v2.8
			c0,1.1,0.7,1.7,1.7,1.7c1,0,1.7-0.8,1.7-1.8v-2.7h0.5v4.9H-327.8z"/>
		<path id="XMLID_399_" fill="#2F457E" d="M-321.1,288.3v6.9h-0.5v-1.1c-0.4,0.7-1.2,1.1-2,1.1c-1.4,0-2.4-0.9-2.4-2.5
			c0-1.6,1.1-2.5,2.4-2.5c0.8,0,1.6,0.4,2,1.1v-3.1H-321.1z M-325.5,292.7c0,1.3,0.9,2,2,2c1.1,0,2-0.8,2-2c0-1.2-0.9-2-2-2
			C-324.6,290.7-325.5,291.3-325.5,292.7z"/>
		<path id="XMLID_396_" fill="#2F457E" d="M-318.8,288.7c0,0.5-0.8,0.5-0.8,0C-319.5,288.2-318.8,288.2-318.8,288.7z M-319.4,290.3
			v4.9h0.5v-4.9H-319.4z"/>
		<path id="XMLID_393_" fill="#2F457E" d="M-317.4,292.7c0-1.5,1.1-2.5,2.5-2.5c1.4,0,2.5,1,2.5,2.5c0,1.5-1.1,2.5-2.5,2.5
			C-316.3,295.2-317.4,294.3-317.4,292.7z M-312.9,292.7c0-1.3-0.9-2.1-2-2.1c-1.1,0-2,0.8-2,2.1s0.9,2,2,2
			C-313.8,294.7-312.9,294-312.9,292.7z"/>
		<path id="XMLID_390_" fill="#2F457E" d="M-302.2,291.6c0,1.7-1.1,3.5-3.5,3.5c-0.8,0-1.5,0-2.3,0v-6.9c0.8,0,1.5,0,2.3,0
			C-303.4,288.3-302.3,289.9-302.2,291.6z M-307.5,288.8v5.9h1.8c2,0,3-1.5,3-3c0-1.4-1-2.9-3-2.9H-307.5z"/>
		<path id="XMLID_387_" fill="#2F457E" d="M-300.9,292.7c0-1.5,1.1-2.5,2.5-2.5c1.4,0,2.6,0.8,2.4,2.7h-4.4c0.1,1.1,1,1.8,2,1.8
			c0.6,0,1.4-0.3,1.7-0.7l0.3,0.3c-0.5,0.6-1.3,0.9-2.1,0.9C-299.8,295.2-300.9,294.2-300.9,292.7z M-296.5,292.5
			c0-1.2-0.8-1.9-2-1.9c-1,0-1.9,0.7-2,1.9H-296.5z"/>
		<path id="XMLID_385_" fill="#2F457E" d="M-291.2,291.2c-0.5-0.4-1-0.5-1.5-0.5c-0.8,0-1.5,0.3-1.5,0.9c0,0.6,0.9,0.8,1.5,0.9
			c0.9,0.1,2,0.3,2,1.4c0,1.1-1.1,1.4-2,1.4c-0.9,0-1.7-0.3-2.1-1l0.4-0.3c0.4,0.6,1.1,0.8,1.8,0.8c0.6,0,1.5-0.2,1.5-0.9
			c0-0.7-0.8-0.8-1.6-1c-0.9-0.2-1.9-0.3-1.9-1.3c0-1,0.9-1.4,1.9-1.4c0.7,0,1.3,0.2,1.8,0.6L-291.2,291.2z"/>
		<path id="XMLID_382_" fill="#2F457E" d="M-288.7,288.7c0,0.5-0.8,0.5-0.8,0C-289.4,288.2-288.7,288.2-288.7,288.7z M-289.3,290.3
			v4.9h0.5v-4.9H-289.3z"/>
		<path id="XMLID_379_" fill="#2F457E" d="M-283.3,290.1l0.3,0.3l-0.5,0.5c0.3,0.4,0.6,0.9,0.6,1.6c0,0.8-0.5,1.7-1.3,2.1
			c0.9,0.3,1.3,0.9,1.3,1.7c0,1.3-1,1.9-2.3,1.9c-1.3,0-2.3-0.7-2.3-1.9h0.5c0,1,0.8,1.5,1.8,1.5c1,0,1.8-0.4,1.8-1.5
			c0-1-0.9-1.5-1.8-1.5c-1.4,0-2.3-1-2.3-2.3c0-1.5,1-2.4,2.3-2.4c0.5,0,1,0.2,1.4,0.4L-283.3,290.1z M-286.9,292.6
			c0,1,0.7,1.9,1.8,1.9c1,0,1.8-0.9,1.8-1.9c0-1.2-0.8-1.9-1.8-1.9C-286.1,290.7-286.9,291.3-286.9,292.6z"/>
		<path id="XMLID_377_" fill="#2F457E" d="M-281.1,290.3v0.9c0.4-0.7,1-0.9,1.7-1c1.3,0,2.2,0.8,2.2,2.1v2.8h-0.5v-2.8
			c0-1.1-0.7-1.7-1.7-1.7c-1,0-1.7,0.8-1.7,1.8v2.7h-0.5v-4.8H-281.1z"/>
	</g>
	<g id="XMLID_358_">
		<path id="XMLID_373_" fill="#2F457E" d="M-405.1,277.3c0,1.6,0.7,3,1.7,4.1c1.2,1.1,2.7,1.7,4.2,1.7c1.5,0,3-0.6,4.3-1.8l1.1,1.2
			c-1.5,1.5-3.5,2.3-5.4,2.3c-1.9,0-3.8-0.7-5.3-2.2c-1.3-1.4-2.2-3.2-2.2-5.4c0-4.2,3.4-7.5,7.6-7.5c4.1,0,7.4,3.4,7.4,7.6H-405.1z
			 M-393.6,275.7c-0.7-2.5-2.9-4.3-5.6-4.3c-2.8,0-5.1,1.8-5.7,4.3H-393.6z"/>
		<path id="XMLID_371_" fill="#2F457E" d="M-382.5,275.4v1.6h-7.7v-1.6H-382.5z"/>
		<path id="XMLID_368_" fill="#2F457E" d="M-353.3,276.1c0-5.1,4.1-9.2,9.1-9.2c5,0,9.1,4.1,9.1,9.2c0,5.1-4.1,9.2-9.1,9.2
			C-349.2,285.2-353.3,281.1-353.3,276.1z M-345.8,276.1c0,0.9,0.7,1.6,1.6,1.6c0.9,0,1.6-0.7,1.6-1.6c0-0.9-0.7-1.6-1.6-1.6
			C-345.1,274.5-345.8,275.2-345.8,276.1z"/>
		<path id="XMLID_366_" fill="#2F457E" d="M-326,284.7c-4.7,0-8.1-2.6-8.1-7.9c0-4.1,0-9.6,0-13.7h7.5v4.3h5.2v7.2h-5.2v2.6
			c0,0.2,0.2,0.4,0.4,0.4h4.8v7.2H-326z"/>
		<path id="XMLID_364_" fill="#2F457E" d="M-320.3,267.4h7.5v17.3h-7.5V267.4z"/>
		<path id="XMLID_362_" fill="#2F457E" d="M-305.5,284.7l-6.7-17.3h8.1l3.6,11.4h0.4l-0.9-3l2.7-8.4h8.1l-6.7,17.3H-305.5z"/>
		<path id="XMLID_359_" fill="#2F457E" d="M-292,276.1c0-5.1,4.1-9.2,9.1-9.2c5,0,9.1,4.1,9.1,9.2c0,5.1-4.1,9.2-9.1,9.2
			C-288,285.2-292,281.1-292,276.1z M-284.5,276.1c0,0.9,0.7,1.6,1.6,1.6c0.9,0,1.6-0.7,1.6-1.6c0-0.9-0.7-1.6-1.6-1.6
			C-283.8,274.5-284.5,275.2-284.5,276.1z"/>
	</g>
	<g id="XMLID_206_">
		<circle id="XMLID_148_" fill="#2F457E" cx="-352.7" cy="291.7" r="3.5"/>
		<circle id="XMLID_147_" fill="#5CB0D5" cx="-385.5" cy="291.7" r="3.5"/>
		<circle id="XMLID_146_" fill="#34599C" cx="-369.1" cy="291.7" r="3.5"/>
		<g id="XMLID_207_">
			<defs>
				<path id="XMLID_208_" d="M-351.6,284.8h-7.5l-4.7-8.5c-0.9,1.6-1.8,3.3-2.6,4.9l-2.6,4.9l-5.3-9.8l-4.6,8.5h-7.5l12.2-22.1
					l5.3,9.7l5.2-9.7L-351.6,284.8z"/>
			</defs>
			<clipPath id="XMLID_179_">
				<use xlink:href="#XMLID_208_"  overflow="visible"/>
			</clipPath>
			<g id="XMLID_210_" clip-path="url(#XMLID_179_)">
				<rect id="XMLID_145_" x="-396" y="262.7" fill="#4290C7" width="4.4" height="4.4"/>
				<polygon id="XMLID_144_" fill="#5CB0D5" points="-391.6,267.1 -396,267.1 -396,262.7 				"/>
				<rect id="XMLID_143_" x="-391.6" y="262.7" fill="#2F457E" width="4.4" height="4.4"/>
				<polygon id="XMLID_142_" fill="#5CB0D5" points="-387.2,267.1 -391.6,267.1 -391.6,262.7 				"/>
				<rect id="XMLID_141_" x="-387.2" y="262.7" fill="#4290C7" width="4.4" height="4.4"/>
				<polygon id="XMLID_140_" fill="#5CB0D5" points="-382.8,267.1 -387.2,267.1 -387.2,262.7 				"/>
				<rect id="XMLID_139_" x="-396" y="267.1" fill="#2F457E" width="4.4" height="4.4"/>
				<polygon id="XMLID_138_" fill="#5CB0D5" points="-396,271.5 -391.6,271.5 -391.6,267.1 				"/>
				<rect id="XMLID_137_" x="-391.6" y="267.1" fill="#4290C7" width="4.4" height="4.4"/>
				<polygon id="XMLID_136_" fill="#5CB0D5" points="-391.6,271.5 -387.2,271.5 -387.2,267.1 				"/>
				<rect id="XMLID_135_" x="-387.2" y="267.1" fill="#2F457E" width="4.4" height="4.4"/>
				<polygon id="XMLID_134_" fill="#5CB0D5" points="-387.2,271.5 -382.8,271.5 -382.8,267.1 				"/>
				<rect id="XMLID_133_" x="-382.8" y="262.7" fill="#5CB0D5" width="4.4" height="4.4"/>
				<polygon id="XMLID_132_" fill="#4290C7" points="-378.4,267.1 -382.8,267.1 -382.8,262.7 				"/>
				<rect id="XMLID_131_" x="-378.4" y="262.7" fill="#2F457E" width="4.4" height="4.4"/>
				<polygon id="XMLID_130_" fill="#5CB0D5" points="-374,267.1 -378.4,267.1 -378.4,262.7 				"/>
				<rect id="XMLID_129_" x="-374" y="262.7" fill="#4290C7" width="4.4" height="4.4"/>
				<polygon id="XMLID_128_" fill="#5CB0D5" points="-369.6,267.1 -374,267.1 -374,262.7 				"/>
				<rect id="XMLID_127_" x="-382.8" y="267.1" fill="#5CB0D5" width="4.4" height="4.4"/>
				<polygon id="XMLID_126_" fill="#2F457E" points="-382.8,271.5 -378.4,271.5 -378.4,267.1 				"/>
				<rect id="XMLID_125_" x="-378.4" y="267.1" fill="#4290C7" width="4.4" height="4.4"/>
				<polygon id="XMLID_124_" fill="#5CB0D5" points="-378.4,271.5 -374,271.5 -374,267.1 				"/>
				<rect id="XMLID_123_" x="-374" y="267.1" fill="#2F457E" width="4.4" height="4.4"/>
				<polygon id="XMLID_122_" fill="#5CB0D5" points="-374,271.5 -369.6,271.5 -369.6,267.1 				"/>
				<rect id="XMLID_121_" x="-396" y="271.5" fill="#4290C7" width="4.4" height="4.4"/>
				<polygon id="XMLID_120_" fill="#5CB0D5" points="-391.6,275.9 -396,275.9 -396,271.5 				"/>
				<rect id="XMLID_119_" x="-391.6" y="271.5" fill="#2F457E" width="4.4" height="4.4"/>
				<polygon id="XMLID_118_" fill="#5CB0D5" points="-387.2,275.9 -391.6,275.9 -391.6,271.5 				"/>
				<rect id="XMLID_117_" x="-387.2" y="271.5" fill="#4290C7" width="4.4" height="4.4"/>
				<polygon id="XMLID_116_" fill="#5CB0D5" points="-382.8,275.9 -387.2,275.9 -387.2,271.5 				"/>
				<rect id="XMLID_115_" x="-396" y="275.9" fill="#2F457E" width="4.4" height="4.4"/>
				<polygon id="XMLID_114_" fill="#5CB0D5" points="-396,280.3 -391.6,280.3 -391.6,275.9 				"/>
				<rect id="XMLID_113_" x="-391.6" y="275.9" fill="#4290C7" width="4.4" height="4.4"/>
				<polygon id="XMLID_112_" fill="#5CB0D5" points="-391.6,280.3 -387.2,280.3 -387.2,275.9 				"/>
				<rect id="XMLID_111_" x="-387.2" y="275.9" fill="#2F457E" width="4.4" height="4.4"/>
				<polygon id="XMLID_110_" fill="#5CB0D5" points="-387.2,280.3 -382.8,280.3 -382.8,275.9 				"/>
				<rect id="XMLID_109_" x="-382.8" y="271.5" fill="#5CB0D5" width="4.4" height="4.4"/>
				<polygon id="XMLID_108_" fill="#4290C7" points="-378.4,275.9 -382.8,275.9 -382.8,271.5 				"/>
				<rect id="XMLID_107_" x="-378.4" y="271.5" fill="#2F457E" width="4.4" height="4.4"/>
				<polygon id="XMLID_106_" fill="#5CB0D5" points="-374,275.9 -378.4,275.9 -378.4,271.5 				"/>
				<rect id="XMLID_105_" x="-374" y="271.5" fill="#4290C7" width="4.4" height="4.4"/>
				<polygon id="XMLID_104_" fill="#5CB0D5" points="-369.6,275.9 -374,275.9 -374,271.5 				"/>
				<rect id="XMLID_103_" x="-382.8" y="275.9" fill="#5CB0D5" width="4.4" height="4.4"/>
				<polygon id="XMLID_102_" fill="#2F457E" points="-382.8,280.3 -378.4,280.3 -378.4,275.9 				"/>
				<rect id="XMLID_101_" x="-378.4" y="275.9" fill="#4290C7" width="4.4" height="4.4"/>
				<polygon id="XMLID_100_" fill="#5CB0D5" points="-378.4,280.3 -374,280.3 -374,275.9 				"/>
				<rect id="XMLID_99_" x="-374" y="275.9" fill="#2F457E" width="4.4" height="4.4"/>
				<polygon id="XMLID_98_" fill="#5CB0D5" points="-374,280.3 -369.6,280.3 -369.6,275.9 				"/>
				<rect id="XMLID_97_" x="-396" y="280.3" fill="#4290C7" width="4.4" height="4.4"/>
				<polygon id="XMLID_96_" fill="#5CB0D5" points="-391.6,284.7 -396,284.7 -396,280.3 				"/>
				<rect id="XMLID_95_" x="-391.6" y="280.3" fill="#2F457E" width="4.4" height="4.4"/>
				<polygon id="XMLID_94_" fill="#5CB0D5" points="-387.2,284.7 -391.6,284.7 -391.6,280.3 				"/>
				<rect id="XMLID_93_" x="-387.2" y="280.3" fill="#4290C7" width="4.4" height="4.4"/>
				<polygon id="XMLID_92_" fill="#5CB0D5" points="-382.8,284.7 -387.2,284.7 -387.2,280.3 				"/>
				<rect id="XMLID_91_" x="-396" y="284.7" fill="#2F457E" width="4.4" height="4.4"/>
				<polygon id="XMLID_90_" fill="#5CB0D5" points="-396,289.1 -391.6,289.1 -391.6,284.7 				"/>
				<rect id="XMLID_89_" x="-391.6" y="284.7" fill="#4290C7" width="4.4" height="4.4"/>
				<polygon id="XMLID_88_" fill="#5CB0D5" points="-391.6,289.1 -387.2,289.1 -387.2,284.7 				"/>
				<rect id="XMLID_87_" x="-387.2" y="284.7" fill="#2F457E" width="4.4" height="4.4"/>
				<polygon id="XMLID_86_" fill="#5CB0D5" points="-387.2,289.1 -382.8,289.1 -382.8,284.7 				"/>
				<rect id="XMLID_85_" x="-382.8" y="280.3" fill="#5CB0D5" width="4.4" height="4.4"/>
				<polygon id="XMLID_84_" fill="#4290C7" points="-378.4,284.7 -382.8,284.7 -382.8,280.3 				"/>
				<rect id="XMLID_83_" x="-378.4" y="280.3" fill="#2F457E" width="4.4" height="4.4"/>
				<polygon id="XMLID_82_" fill="#5CB0D5" points="-374,284.7 -378.4,284.7 -378.4,280.3 				"/>
				<rect id="XMLID_81_" x="-374" y="280.3" fill="#4290C7" width="4.4" height="4.4"/>
				<polygon id="XMLID_80_" fill="#5CB0D5" points="-369.6,284.7 -374,284.7 -374,280.3 				"/>
				<rect id="XMLID_79_" x="-382.8" y="284.7" fill="#5CB0D5" width="4.4" height="4.4"/>
				<polygon id="XMLID_78_" fill="#2F457E" points="-382.8,289.1 -378.4,289.1 -378.4,284.7 				"/>
				<rect id="XMLID_77_" x="-378.4" y="284.7" fill="#4290C7" width="4.4" height="4.4"/>
				<polygon id="XMLID_76_" fill="#5CB0D5" points="-378.4,289.1 -374,289.1 -374,284.7 				"/>
				<rect id="XMLID_75_" x="-374" y="284.7" fill="#2F457E" width="4.4" height="4.4"/>
				<polygon id="XMLID_74_" fill="#5CB0D5" points="-374,289.1 -369.6,289.1 -369.6,284.7 				"/>
				<rect id="XMLID_73_" x="-369.6" y="262.7" fill="#4290C7" width="4.4" height="4.4"/>
				<polygon id="XMLID_72_" fill="#5CB0D5" points="-365.2,267.1 -369.6,267.1 -369.6,262.7 				"/>
				<rect id="XMLID_71_" x="-365.2" y="262.7" fill="#2F457E" width="4.4" height="4.4"/>
				<polygon id="XMLID_70_" fill="#5CB0D5" points="-360.8,267.1 -365.2,267.1 -365.2,262.7 				"/>
				<rect id="XMLID_69_" x="-360.8" y="262.7" fill="#4290C7" width="4.4" height="4.4"/>
				<polygon id="XMLID_68_" fill="#5CB0D5" points="-356.4,267.1 -360.8,267.1 -360.8,262.7 				"/>
				<rect id="XMLID_67_" x="-369.6" y="267.1" fill="#2F457E" width="4.4" height="4.4"/>
				<polygon id="XMLID_66_" fill="#5CB0D5" points="-369.6,271.5 -365.2,271.5 -365.2,267.1 				"/>
				<rect id="XMLID_65_" x="-365.2" y="267.1" fill="#4290C7" width="4.4" height="4.4"/>
				<polygon id="XMLID_64_" fill="#5CB0D5" points="-365.2,271.5 -360.8,271.5 -360.8,267.1 				"/>
				<rect id="XMLID_63_" x="-360.8" y="267.1" fill="#2F457E" width="4.4" height="4.4"/>
				<polygon id="XMLID_62_" fill="#5CB0D5" points="-360.8,271.5 -356.4,271.5 -356.4,267.1 				"/>
				<rect id="XMLID_61_" x="-356.4" y="262.7" fill="#5CB0D5" width="4.4" height="4.4"/>
				<polygon id="XMLID_60_" fill="#4290C7" points="-352,267.1 -356.4,267.1 -356.4,262.7 				"/>
				<rect id="XMLID_59_" x="-352" y="262.7" fill="#2F457E" width="4.4" height="4.4"/>
				<polygon id="XMLID_58_" fill="#5CB0D5" points="-347.6,267.1 -352,267.1 -352,262.7 				"/>
				<rect id="XMLID_57_" x="-347.6" y="262.7" fill="#4290C7" width="4.4" height="4.4"/>
				<polygon id="XMLID_56_" fill="#5CB0D5" points="-343.2,267.1 -347.6,267.1 -347.6,262.7 				"/>
				<rect id="XMLID_55_" x="-356.4" y="267.1" fill="#5CB0D5" width="4.4" height="4.4"/>
				<polygon id="XMLID_54_" fill="#2F457E" points="-356.4,271.5 -352,271.5 -352,267.1 				"/>
				<rect id="XMLID_53_" x="-352" y="267.1" fill="#4290C7" width="4.4" height="4.4"/>
				<polygon id="XMLID_52_" fill="#5CB0D5" points="-352,271.5 -347.6,271.5 -347.6,267.1 				"/>
				<rect id="XMLID_51_" x="-347.6" y="267.1" fill="#2F457E" width="4.4" height="4.4"/>
				<polygon id="XMLID_50_" fill="#5CB0D5" points="-347.6,271.5 -343.2,271.5 -343.2,267.1 				"/>
				<rect id="XMLID_49_" x="-369.6" y="271.5" fill="#4290C7" width="4.4" height="4.4"/>
				<polygon id="XMLID_48_" fill="#5CB0D5" points="-365.2,275.9 -369.6,275.9 -369.6,271.5 				"/>
				<rect id="XMLID_47_" x="-365.2" y="271.5" fill="#2F457E" width="4.4" height="4.4"/>
				<polygon id="XMLID_46_" fill="#5CB0D5" points="-360.8,275.9 -365.2,275.9 -365.2,271.5 				"/>
				<rect id="XMLID_45_" x="-360.8" y="271.5" fill="#4290C7" width="4.4" height="4.4"/>
				<polygon id="XMLID_44_" fill="#5CB0D5" points="-356.4,275.9 -360.8,275.9 -360.8,271.5 				"/>
				<rect id="XMLID_43_" x="-369.6" y="275.9" fill="#2F457E" width="4.4" height="4.4"/>
				<polygon id="XMLID_42_" fill="#5CB0D5" points="-369.6,280.3 -365.2,280.3 -365.2,275.9 				"/>
				<rect id="XMLID_41_" x="-365.2" y="275.9" fill="#4290C7" width="4.4" height="4.4"/>
				<polygon id="XMLID_40_" fill="#5CB0D5" points="-365.2,280.3 -360.8,280.3 -360.8,275.9 				"/>
				<rect id="XMLID_39_" x="-360.8" y="275.9" fill="#2F457E" width="4.4" height="4.4"/>
				<polygon id="XMLID_38_" fill="#5CB0D5" points="-360.8,280.3 -356.4,280.3 -356.4,275.9 				"/>
				<rect id="XMLID_37_" x="-356.4" y="271.5" fill="#5CB0D5" width="4.4" height="4.4"/>
				<polygon id="XMLID_36_" fill="#4290C7" points="-352,275.9 -356.4,275.9 -356.4,271.5 				"/>
				<rect id="XMLID_35_" x="-352" y="271.5" fill="#2F457E" width="4.4" height="4.4"/>
				<polygon id="XMLID_34_" fill="#5CB0D5" points="-347.6,275.9 -352,275.9 -352,271.5 				"/>
				<rect id="XMLID_33_" x="-347.6" y="271.5" fill="#4290C7" width="4.4" height="4.4"/>
				<polygon id="XMLID_32_" fill="#5CB0D5" points="-343.2,275.9 -347.6,275.9 -347.6,271.5 				"/>
				<rect id="XMLID_31_" x="-356.4" y="275.9" fill="#5CB0D5" width="4.4" height="4.4"/>
				<polygon id="XMLID_30_" fill="#2F457E" points="-356.4,280.3 -352,280.3 -352,275.9 				"/>
				<rect id="XMLID_29_" x="-352" y="275.9" fill="#4290C7" width="4.4" height="4.4"/>
				<polygon id="XMLID_28_" fill="#5CB0D5" points="-352,280.3 -347.6,280.3 -347.6,275.9 				"/>
				<rect id="XMLID_27_" x="-347.6" y="275.9" fill="#2F457E" width="4.4" height="4.4"/>
				<polygon id="XMLID_26_" fill="#5CB0D5" points="-347.6,280.3 -343.2,280.3 -343.2,275.9 				"/>
				<rect id="XMLID_25_" x="-369.6" y="280.3" fill="#4290C7" width="4.4" height="4.4"/>
				<polygon id="XMLID_24_" fill="#5CB0D5" points="-365.2,284.7 -369.6,284.7 -369.6,280.3 				"/>
				<rect id="XMLID_23_" x="-365.2" y="280.3" fill="#2F457E" width="4.4" height="4.4"/>
				<polygon id="XMLID_22_" fill="#5CB0D5" points="-360.8,284.7 -365.2,284.7 -365.2,280.3 				"/>
				<rect id="XMLID_21_" x="-360.8" y="280.3" fill="#4290C7" width="4.4" height="4.4"/>
				<polygon id="XMLID_20_" fill="#5CB0D5" points="-356.4,284.7 -360.8,284.7 -360.8,280.3 				"/>
				<rect id="XMLID_19_" x="-369.6" y="284.7" fill="#2F457E" width="4.4" height="4.4"/>
				<polygon id="XMLID_18_" fill="#5CB0D5" points="-369.6,289.1 -365.2,289.1 -365.2,284.7 				"/>
				<rect id="XMLID_17_" x="-365.2" y="284.7" fill="#4290C7" width="4.4" height="4.4"/>
				<polygon id="XMLID_16_" fill="#5CB0D5" points="-365.2,289.1 -360.8,289.1 -360.8,284.7 				"/>
				<rect id="XMLID_15_" x="-360.8" y="284.7" fill="#2F457E" width="4.4" height="4.4"/>
				<polygon id="XMLID_14_" fill="#5CB0D5" points="-360.8,289.1 -356.4,289.1 -356.4,284.7 				"/>
				<rect id="XMLID_13_" x="-356.4" y="280.3" fill="#5CB0D5" width="4.4" height="4.4"/>
				<polygon id="XMLID_12_" fill="#4290C7" points="-352,284.7 -356.4,284.7 -356.4,280.3 				"/>
				<rect id="XMLID_11_" x="-352" y="280.3" fill="#2F457E" width="4.4" height="4.4"/>
				<polygon id="XMLID_10_" fill="#5CB0D5" points="-347.6,284.7 -352,284.7 -352,280.3 				"/>
				<rect id="XMLID_9_" x="-347.6" y="280.3" fill="#4290C7" width="4.4" height="4.4"/>
				<polygon id="XMLID_8_" fill="#5CB0D5" points="-343.2,284.7 -347.6,284.7 -347.6,280.3 				"/>
				<rect id="XMLID_7_" x="-356.4" y="284.7" fill="#5CB0D5" width="4.4" height="4.4"/>
				<polygon id="XMLID_6_" fill="#2F457E" points="-356.4,289.1 -352,289.1 -352,284.7 				"/>
				<rect id="XMLID_5_" x="-352" y="284.7" fill="#4290C7" width="4.4" height="4.4"/>
				<polygon id="XMLID_4_" fill="#5CB0D5" points="-352,289.1 -347.6,289.1 -347.6,284.7 				"/>
				<rect id="XMLID_3_" x="-347.6" y="284.7" fill="#2F457E" width="4.4" height="4.4"/>
				<polygon id="XMLID_2_" fill="#5CB0D5" points="-347.6,289.1 -343.2,289.1 -343.2,284.7 				"/>
			</g>
		</g>
	</g>
</g>
</svg>
